<mxfile host="app.diagrams.net" modified="2022-10-14T12:50:34.690Z" agent="5.0 (Macintosh; Intel Mac OS X 10_15_7) AppleWebKit/537.36 (KHTML, like Gecko) Chrome/106.0.0.0 Safari/537.36" etag="4HU6I-nKuA5iXE5aX7lX" version="20.4.0" type="github">
  <diagram id="XxieVzkdwiMo6nqb6jkK" name="Page-1">
    <mxGraphModel dx="1051" dy="682" grid="1" gridSize="10" guides="1" tooltips="1" connect="1" arrows="1" fold="1" page="1" pageScale="1" pageWidth="850" pageHeight="1100" math="0" shadow="0">
      <root>
        <mxCell id="0" />
        <mxCell id="1" parent="0" />
        <mxCell id="fHhEs9VGLyoYJjRyogGl-5" value="" style="edgeStyle=orthogonalEdgeStyle;rounded=0;orthogonalLoop=1;jettySize=auto;html=1;" edge="1" parent="1" source="fHhEs9VGLyoYJjRyogGl-2" target="fHhEs9VGLyoYJjRyogGl-4">
          <mxGeometry relative="1" as="geometry" />
        </mxCell>
        <mxCell id="fHhEs9VGLyoYJjRyogGl-10" style="rounded=0;orthogonalLoop=1;jettySize=auto;html=1;exitX=0.75;exitY=1;exitDx=0;exitDy=0;entryX=0;entryY=0.5;entryDx=0;entryDy=0;dashed=1;edgeStyle=orthogonalEdgeStyle;" edge="1" parent="1" source="fHhEs9VGLyoYJjRyogGl-2" target="fHhEs9VGLyoYJjRyogGl-7">
          <mxGeometry relative="1" as="geometry" />
        </mxCell>
        <mxCell id="fHhEs9VGLyoYJjRyogGl-2" value="Pokemon" style="shape=parallelogram;html=1;strokeWidth=2;perimeter=parallelogramPerimeter;whiteSpace=wrap;rounded=1;arcSize=12;size=0.23;" vertex="1" parent="1">
          <mxGeometry x="60" y="40" width="100" height="60" as="geometry" />
        </mxCell>
        <mxCell id="fHhEs9VGLyoYJjRyogGl-4" value="Attacks" style="shape=parallelogram;html=1;strokeWidth=2;perimeter=parallelogramPerimeter;whiteSpace=wrap;rounded=1;arcSize=12;size=0.23;" vertex="1" parent="1">
          <mxGeometry x="190" y="40" width="100" height="60" as="geometry" />
        </mxCell>
        <mxCell id="fHhEs9VGLyoYJjRyogGl-8" style="edgeStyle=orthogonalEdgeStyle;rounded=0;orthogonalLoop=1;jettySize=auto;html=1;exitX=0.5;exitY=1;exitDx=0;exitDy=0;exitPerimeter=0;entryX=0.5;entryY=0.175;entryDx=0;entryDy=0;entryPerimeter=0;" edge="1" parent="1" source="fHhEs9VGLyoYJjRyogGl-6" target="fHhEs9VGLyoYJjRyogGl-7">
          <mxGeometry relative="1" as="geometry" />
        </mxCell>
        <mxCell id="fHhEs9VGLyoYJjRyogGl-6" value="Start game" style="strokeWidth=2;html=1;shape=mxgraph.flowchart.start_1;whiteSpace=wrap;" vertex="1" parent="1">
          <mxGeometry x="470" y="40" width="100" height="60" as="geometry" />
        </mxCell>
        <mxCell id="fHhEs9VGLyoYJjRyogGl-12" style="edgeStyle=orthogonalEdgeStyle;rounded=0;orthogonalLoop=1;jettySize=auto;html=1;exitX=1;exitY=0.5;exitDx=0;exitDy=0;entryX=0;entryY=0.5;entryDx=0;entryDy=0;entryPerimeter=0;fillColor=#f8cecc;strokeColor=#b85450;" edge="1" parent="1" source="fHhEs9VGLyoYJjRyogGl-7" target="fHhEs9VGLyoYJjRyogGl-11">
          <mxGeometry relative="1" as="geometry" />
        </mxCell>
        <mxCell id="fHhEs9VGLyoYJjRyogGl-27" style="edgeStyle=none;rounded=0;orthogonalLoop=1;jettySize=auto;html=1;exitX=0;exitY=1;exitDx=0;exitDy=0;entryX=1;entryY=0;entryDx=0;entryDy=0;" edge="1" parent="1" source="fHhEs9VGLyoYJjRyogGl-7" target="fHhEs9VGLyoYJjRyogGl-26">
          <mxGeometry relative="1" as="geometry">
            <mxPoint x="370" y="250" as="targetPoint" />
          </mxGeometry>
        </mxCell>
        <mxCell id="fHhEs9VGLyoYJjRyogGl-7" value="Ask Pokemons" style="html=1;strokeWidth=2;shape=manualInput;whiteSpace=wrap;rounded=1;size=26;arcSize=11;" vertex="1" parent="1">
          <mxGeometry x="470" y="170" width="100" height="60" as="geometry" />
        </mxCell>
        <mxCell id="fHhEs9VGLyoYJjRyogGl-46" value="" style="edgeStyle=orthogonalEdgeStyle;orthogonalLoop=1;jettySize=auto;html=1;strokeColor=#b85450;fillColor=#f8cecc;" edge="1" parent="1" source="fHhEs9VGLyoYJjRyogGl-11" target="fHhEs9VGLyoYJjRyogGl-7">
          <mxGeometry relative="1" as="geometry">
            <Array as="points">
              <mxPoint x="620" y="200" />
              <mxPoint x="620" y="200" />
            </Array>
          </mxGeometry>
        </mxCell>
        <mxCell id="fHhEs9VGLyoYJjRyogGl-11" value="Not PKM" style="strokeWidth=2;html=1;shape=mxgraph.flowchart.display;whiteSpace=wrap;fillColor=#f8cecc;strokeColor=#b85450;" vertex="1" parent="1">
          <mxGeometry x="650" y="180" width="70" height="40" as="geometry" />
        </mxCell>
        <mxCell id="fHhEs9VGLyoYJjRyogGl-35" style="edgeStyle=none;rounded=0;orthogonalLoop=1;jettySize=auto;html=1;exitX=0.5;exitY=1;exitDx=0;exitDy=0;exitPerimeter=0;entryX=0.5;entryY=0;entryDx=0;entryDy=0;entryPerimeter=0;" edge="1" parent="1" source="fHhEs9VGLyoYJjRyogGl-17" target="fHhEs9VGLyoYJjRyogGl-33">
          <mxGeometry relative="1" as="geometry" />
        </mxCell>
        <mxCell id="fHhEs9VGLyoYJjRyogGl-17" value="List of&lt;br&gt;attacks" style="strokeWidth=2;html=1;shape=mxgraph.flowchart.display;whiteSpace=wrap;" vertex="1" parent="1">
          <mxGeometry x="485" y="260" width="70" height="40" as="geometry" />
        </mxCell>
        <mxCell id="fHhEs9VGLyoYJjRyogGl-32" value="" style="edgeStyle=none;rounded=0;orthogonalLoop=1;jettySize=auto;html=1;fillColor=#f8cecc;strokeColor=#b85450;" edge="1" parent="1" source="fHhEs9VGLyoYJjRyogGl-24" target="fHhEs9VGLyoYJjRyogGl-31">
          <mxGeometry relative="1" as="geometry" />
        </mxCell>
        <mxCell id="fHhEs9VGLyoYJjRyogGl-38" value="" style="edgeStyle=none;rounded=0;orthogonalLoop=1;jettySize=auto;html=1;entryX=1;entryY=0;entryDx=0;entryDy=0;" edge="1" parent="1" source="fHhEs9VGLyoYJjRyogGl-24" target="fHhEs9VGLyoYJjRyogGl-30">
          <mxGeometry relative="1" as="geometry" />
        </mxCell>
        <mxCell id="fHhEs9VGLyoYJjRyogGl-24" value="Pick attacks" style="html=1;strokeWidth=2;shape=manualInput;whiteSpace=wrap;rounded=1;size=26;arcSize=11;" vertex="1" parent="1">
          <mxGeometry x="470" y="380" width="100" height="60" as="geometry" />
        </mxCell>
        <mxCell id="fHhEs9VGLyoYJjRyogGl-29" value="" style="edgeStyle=none;rounded=0;orthogonalLoop=1;jettySize=auto;html=1;" edge="1" parent="1" source="fHhEs9VGLyoYJjRyogGl-26" target="fHhEs9VGLyoYJjRyogGl-17">
          <mxGeometry relative="1" as="geometry" />
        </mxCell>
        <mxCell id="fHhEs9VGLyoYJjRyogGl-26" value="Creating PkM&lt;br&gt;Object with 4&lt;br&gt;&lt;i style=&quot;&quot;&gt;random&lt;/i&gt;&amp;nbsp;Attacks" style="rounded=1;whiteSpace=wrap;html=1;absoluteArcSize=1;arcSize=14;strokeWidth=2;" vertex="1" parent="1">
          <mxGeometry x="280" y="250" width="100" height="60" as="geometry" />
        </mxCell>
        <mxCell id="fHhEs9VGLyoYJjRyogGl-40" style="edgeStyle=none;rounded=0;orthogonalLoop=1;jettySize=auto;html=1;exitX=1;exitY=1;exitDx=0;exitDy=0;entryX=0;entryY=0.5;entryDx=0;entryDy=0;entryPerimeter=0;" edge="1" parent="1" source="fHhEs9VGLyoYJjRyogGl-30" target="fHhEs9VGLyoYJjRyogGl-39">
          <mxGeometry relative="1" as="geometry" />
        </mxCell>
        <mxCell id="fHhEs9VGLyoYJjRyogGl-30" value="Calculate Dmg, HP" style="rounded=1;whiteSpace=wrap;html=1;absoluteArcSize=1;arcSize=14;strokeWidth=2;" vertex="1" parent="1">
          <mxGeometry x="280" y="460" width="100" height="40" as="geometry" />
        </mxCell>
        <mxCell id="fHhEs9VGLyoYJjRyogGl-31" value="Not Attack" style="strokeWidth=2;html=1;shape=mxgraph.flowchart.display;whiteSpace=wrap;fillColor=#f8cecc;strokeColor=#b85450;" vertex="1" parent="1">
          <mxGeometry x="650" y="390" width="70" height="40" as="geometry" />
        </mxCell>
        <mxCell id="fHhEs9VGLyoYJjRyogGl-37" style="edgeStyle=none;rounded=0;orthogonalLoop=1;jettySize=auto;html=1;exitX=0.5;exitY=1;exitDx=0;exitDy=0;exitPerimeter=0;entryX=0.501;entryY=0.198;entryDx=0;entryDy=0;entryPerimeter=0;" edge="1" parent="1" source="fHhEs9VGLyoYJjRyogGl-33" target="fHhEs9VGLyoYJjRyogGl-24">
          <mxGeometry relative="1" as="geometry" />
        </mxCell>
        <mxCell id="fHhEs9VGLyoYJjRyogGl-33" value="Fight!" style="strokeWidth=2;html=1;shape=mxgraph.flowchart.start_1;whiteSpace=wrap;" vertex="1" parent="1">
          <mxGeometry x="482.5" y="330" width="75" height="30" as="geometry" />
        </mxCell>
        <mxCell id="fHhEs9VGLyoYJjRyogGl-34" style="edgeStyle=none;rounded=0;orthogonalLoop=1;jettySize=auto;html=1;exitX=0.5;exitY=0;exitDx=0;exitDy=0;exitPerimeter=0;" edge="1" parent="1" source="fHhEs9VGLyoYJjRyogGl-33" target="fHhEs9VGLyoYJjRyogGl-33">
          <mxGeometry relative="1" as="geometry" />
        </mxCell>
        <mxCell id="fHhEs9VGLyoYJjRyogGl-41" value="" style="edgeStyle=none;rounded=0;orthogonalLoop=1;jettySize=auto;html=1;" edge="1" parent="1" source="fHhEs9VGLyoYJjRyogGl-39" target="fHhEs9VGLyoYJjRyogGl-24">
          <mxGeometry relative="1" as="geometry" />
        </mxCell>
        <mxCell id="fHhEs9VGLyoYJjRyogGl-42" value="&lt;b&gt;HP &amp;gt; 0&lt;/b&gt;" style="edgeLabel;html=1;align=center;verticalAlign=middle;resizable=0;points=[];" vertex="1" connectable="0" parent="fHhEs9VGLyoYJjRyogGl-41">
          <mxGeometry x="-0.1531" relative="1" as="geometry">
            <mxPoint as="offset" />
          </mxGeometry>
        </mxCell>
        <mxCell id="fHhEs9VGLyoYJjRyogGl-44" value="&lt;b&gt;HP &amp;lt;= 0&lt;/b&gt;" style="edgeStyle=none;rounded=0;orthogonalLoop=1;jettySize=auto;html=1;" edge="1" parent="1" source="fHhEs9VGLyoYJjRyogGl-39" target="fHhEs9VGLyoYJjRyogGl-43">
          <mxGeometry relative="1" as="geometry" />
        </mxCell>
        <mxCell id="fHhEs9VGLyoYJjRyogGl-39" value="HP" style="strokeWidth=2;html=1;shape=mxgraph.flowchart.display;whiteSpace=wrap;" vertex="1" parent="1">
          <mxGeometry x="492.5" y="530" width="55" height="30" as="geometry" />
        </mxCell>
        <mxCell id="fHhEs9VGLyoYJjRyogGl-43" value="&lt;b&gt;Winner&lt;/b&gt;" style="strokeWidth=2;html=1;shape=mxgraph.flowchart.display;whiteSpace=wrap;" vertex="1" parent="1">
          <mxGeometry x="492.5" y="630" width="55" height="30" as="geometry" />
        </mxCell>
        <mxCell id="fHhEs9VGLyoYJjRyogGl-45" style="edgeStyle=orthogonalEdgeStyle;orthogonalLoop=1;jettySize=auto;html=1;exitX=0.75;exitY=1;exitDx=0;exitDy=0;entryX=1;entryY=0.75;entryDx=0;entryDy=0;dashed=1;" edge="1" parent="1" source="fHhEs9VGLyoYJjRyogGl-7" target="fHhEs9VGLyoYJjRyogGl-7">
          <mxGeometry relative="1" as="geometry">
            <Array as="points">
              <mxPoint x="545" y="250" />
              <mxPoint x="600" y="250" />
              <mxPoint x="600" y="215" />
            </Array>
          </mxGeometry>
        </mxCell>
      </root>
    </mxGraphModel>
  </diagram>
</mxfile>
